<svg width="22" height="22" viewBox="0 0 22 22" fill="none" xmlns="http://www.w3.org/2000/svg">
<path d="M21.1463 8.31924L14.2092 1.38121C13.3507 0.525153 12.1877 0.0444336 10.9753 0.0444336C9.76283 0.0444336 8.59986 0.525153 7.74129 1.38121L0.804174 8.31924C0.54848 8.5733 0.345757 8.87558 0.207758 9.20857C0.0697591 9.54156 -0.000771413 9.89862 0.000255188 10.2591V19.2375C0.000255188 19.9652 0.289328 20.6631 0.803881 21.1777C1.31843 21.6922 2.01632 21.9813 2.74401 21.9813H19.2065C19.9342 21.9813 20.6321 21.6922 21.1466 21.1777C21.6612 20.6631 21.9503 19.9652 21.9503 19.2375V10.2591C21.9513 9.89862 21.8808 9.54156 21.7428 9.20857C21.6048 8.87558 21.402 8.5733 21.1463 8.31924V8.31924ZM13.719 20.1521H8.23151V16.5542C8.23151 15.8265 8.52058 15.1286 9.03513 14.614C9.54969 14.0995 10.2476 13.8104 10.9753 13.8104C11.7029 13.8104 12.4008 14.0995 12.9154 14.614C13.4299 15.1286 13.719 15.8265 13.719 16.5542V20.1521ZM20.1211 19.2375C20.1211 19.4801 20.0247 19.7127 19.8532 19.8842C19.6817 20.0558 19.4491 20.1521 19.2065 20.1521H15.5482V16.5542C15.5482 15.3413 15.0664 14.1782 14.2088 13.3206C13.3512 12.463 12.1881 11.9812 10.9753 11.9812C9.76244 11.9812 8.5993 12.463 7.74172 13.3206C6.88413 14.1782 6.40234 15.3413 6.40234 16.5542V20.1521H2.74401C2.50144 20.1521 2.26882 20.0558 2.0973 19.8842C1.92578 19.7127 1.82942 19.4801 1.82942 19.2375V10.2591C1.83027 10.0167 1.92654 9.78439 2.0974 9.61246L9.03451 2.67718C9.55006 2.16403 10.2479 1.87595 10.9753 1.87595C11.7027 1.87595 12.4005 2.16403 12.916 2.67718L19.8531 9.61521C20.0233 9.78646 20.1195 10.0176 20.1211 10.2591V19.2375Z" fill="#929292"/>
</svg>
