<svg width="119" height="56" viewBox="0 0 119 56" fill="none" xmlns="http://www.w3.org/2000/svg">
<rect width="119" height="56" rx="28" fill="#5E5BE2"/>
<g clip-path="url(#clip0_1_1724)">
<path d="M49.6712 25.3192L42.7341 18.3812C41.8756 17.5252 40.7126 17.0444 39.5002 17.0444C38.2877 17.0444 37.1248 17.5252 36.2662 18.3812L29.3291 25.3192C29.0734 25.5733 28.8707 25.8756 28.7327 26.2086C28.5947 26.5416 28.5241 26.8986 28.5252 27.2591V36.2375C28.5252 36.9652 28.8142 37.6631 29.3288 38.1777C29.8433 38.6922 30.5412 38.9813 31.2689 38.9813H47.7314C48.4591 38.9813 49.157 38.6922 49.6715 38.1777C50.1861 37.6631 50.4752 36.9652 50.4752 36.2375V27.2591C50.4762 26.8986 50.4057 26.5416 50.2677 26.2086C50.1297 25.8756 49.9269 25.5733 49.6712 25.3192ZM42.2439 37.1521H36.7564V33.5542C36.7564 32.8265 37.0455 32.1286 37.56 31.614C38.0746 31.0995 38.7725 30.8104 39.5002 30.8104C40.2278 30.8104 40.9257 31.0995 41.4403 31.614C41.9548 32.1286 42.2439 32.8265 42.2439 33.5542V37.1521ZM48.646 36.2375C48.646 36.4801 48.5496 36.7127 48.3781 36.8842C48.2066 37.0558 47.974 37.1521 47.7314 37.1521H44.0731V33.5542C44.0731 32.3413 43.5913 31.1782 42.7337 30.3206C41.8761 29.463 40.713 28.9812 39.5002 28.9812C38.2873 28.9812 37.1242 29.463 36.2666 30.3206C35.409 31.1782 34.9272 32.3413 34.9272 33.5542V37.1521H31.2689C31.0263 37.1521 30.7937 37.0558 30.6222 36.8842C30.4507 36.7127 30.3543 36.4801 30.3543 36.2375V27.2591C30.3552 27.0167 30.4514 26.7844 30.6223 26.6125L37.5594 19.6772C38.075 19.164 38.7728 18.8759 39.5002 18.8759C40.2276 18.8759 40.9254 19.164 41.4409 19.6772L48.378 26.6152C48.5482 26.7865 48.6444 27.0176 48.646 27.2591V36.2375Z" fill="white"/>
</g>
<path d="M66.9057 24.36V33H65.5017V29.154H61.1637V33H59.7537V24.36H61.1637V28.14H65.5017V24.36H66.9057ZM70.9431 26.784C71.3951 26.784 71.8031 26.858 72.1671 27.006C72.5351 27.154 72.8471 27.364 73.1031 27.636C73.3631 27.908 73.5631 28.238 73.7031 28.626C73.8431 29.014 73.9131 29.45 73.9131 29.934C73.9131 30.418 73.8431 30.854 73.7031 31.242C73.5631 31.63 73.3631 31.962 73.1031 32.238C72.8471 32.51 72.5351 32.72 72.1671 32.868C71.8031 33.016 71.3951 33.09 70.9431 33.09C70.4871 33.09 70.0751 33.016 69.7071 32.868C69.3431 32.72 69.0311 32.51 68.7711 32.238C68.5111 31.962 68.3111 31.63 68.1711 31.242C68.0311 30.854 67.9611 30.418 67.9611 29.934C67.9611 29.45 68.0311 29.014 68.1711 28.626C68.3111 28.238 68.5111 27.908 68.7711 27.636C69.0311 27.364 69.3431 27.154 69.7071 27.006C70.0751 26.858 70.4871 26.784 70.9431 26.784ZM70.9431 32.082C71.4951 32.082 71.9051 31.898 72.1731 31.53C72.4451 31.158 72.5811 30.628 72.5811 29.94C72.5811 29.252 72.4451 28.722 72.1731 28.35C71.9051 27.974 71.4951 27.786 70.9431 27.786C70.3831 27.786 69.9671 27.974 69.6951 28.35C69.4231 28.722 69.2871 29.252 69.2871 29.94C69.2871 30.628 69.4231 31.158 69.6951 31.53C69.9671 31.898 70.3831 32.082 70.9431 32.082ZM74.9126 33V26.88H75.6926C75.8686 26.88 75.9806 26.962 76.0286 27.126L76.1126 27.66C76.2246 27.532 76.3406 27.416 76.4606 27.312C76.5806 27.204 76.7086 27.112 76.8446 27.036C76.9846 26.956 77.1326 26.894 77.2886 26.85C77.4486 26.806 77.6206 26.784 77.8046 26.784C78.0006 26.784 78.1806 26.812 78.3446 26.868C78.5086 26.924 78.6526 27.004 78.7766 27.108C78.9046 27.212 79.0146 27.338 79.1066 27.486C79.1986 27.634 79.2746 27.8 79.3346 27.984C79.4266 27.772 79.5426 27.59 79.6826 27.438C79.8226 27.286 79.9786 27.162 80.1506 27.066C80.3226 26.97 80.5046 26.9 80.6966 26.856C80.8926 26.808 81.0906 26.784 81.2906 26.784C81.6186 26.784 81.9106 26.836 82.1666 26.94C82.4266 27.044 82.6446 27.196 82.8206 27.396C83.0006 27.592 83.1366 27.834 83.2286 28.122C83.3206 28.41 83.3666 28.738 83.3666 29.106V33H82.0766V29.106C82.0766 28.674 81.9826 28.35 81.7946 28.134C81.6106 27.914 81.3366 27.804 80.9726 27.804C80.8086 27.804 80.6546 27.832 80.5106 27.888C80.3666 27.944 80.2406 28.026 80.1326 28.134C80.0246 28.242 79.9386 28.378 79.8746 28.542C79.8146 28.702 79.7846 28.89 79.7846 29.106V33H78.4946V29.106C78.4946 28.658 78.4046 28.33 78.2246 28.122C78.0446 27.91 77.7806 27.804 77.4326 27.804C77.1926 27.804 76.9706 27.866 76.7666 27.99C76.5626 28.11 76.3746 28.276 76.2026 28.488V33H74.9126ZM88.6475 29.25C88.6475 29.034 88.6155 28.834 88.5515 28.65C88.4915 28.462 88.4015 28.3 88.2815 28.164C88.1615 28.024 88.0115 27.916 87.8315 27.84C87.6555 27.76 87.4515 27.72 87.2195 27.72C86.7515 27.72 86.3835 27.854 86.1155 28.122C85.8475 28.39 85.6775 28.766 85.6055 29.25H88.6475ZM85.5695 30.042C85.5855 30.39 85.6395 30.692 85.7315 30.948C85.8235 31.2 85.9455 31.41 86.0975 31.578C86.2535 31.746 86.4375 31.872 86.6495 31.956C86.8655 32.036 87.1055 32.076 87.3695 32.076C87.6215 32.076 87.8395 32.048 88.0235 31.992C88.2075 31.932 88.3675 31.868 88.5035 31.8C88.6395 31.728 88.7555 31.664 88.8515 31.608C88.9475 31.548 89.0355 31.518 89.1155 31.518C89.2195 31.518 89.2995 31.558 89.3555 31.638L89.7215 32.112C89.5695 32.292 89.3975 32.444 89.2055 32.568C89.0135 32.692 88.8095 32.794 88.5935 32.874C88.3775 32.95 88.1555 33.004 87.9275 33.036C87.6995 33.072 87.4775 33.09 87.2615 33.09C86.8375 33.09 86.4435 33.02 86.0795 32.88C85.7195 32.736 85.4055 32.526 85.1375 32.25C84.8735 31.974 84.6655 31.632 84.5135 31.224C84.3655 30.816 84.2915 30.346 84.2915 29.814C84.2915 29.39 84.3575 28.994 84.4895 28.626C84.6255 28.258 84.8175 27.938 85.0655 27.666C85.3175 27.394 85.6215 27.18 85.9775 27.024C86.3375 26.864 86.7435 26.784 87.1955 26.784C87.5715 26.784 87.9195 26.846 88.2395 26.97C88.5595 27.09 88.8355 27.268 89.0675 27.504C89.2995 27.74 89.4795 28.03 89.6075 28.374C89.7395 28.714 89.8055 29.102 89.8055 29.538C89.8055 29.738 89.7835 29.872 89.7395 29.94C89.6955 30.008 89.6155 30.042 89.4995 30.042H85.5695Z" fill="white"/>
<defs>
<clipPath id="clip0_1_1724">
<rect width="21.95" height="21.95" fill="white" transform="translate(28.5249 17.025)"/>
</clipPath>
</defs>
</svg>
