<svg width="119" height="56" viewBox="0 0 119 56" fill="none" xmlns="http://www.w3.org/2000/svg">
<rect width="119" height="56" rx="28" fill="#5E5BE2"/>
<path d="M31.8333 33.0001C31.8333 32.116 32.1844 31.2682 32.8096 30.6431C33.4347 30.0179 34.2825 29.6667 35.1666 29.6667H41.8333C42.7173 29.6667 43.5652 30.0179 44.1903 30.6431C44.8154 31.2682 45.1666 32.116 45.1666 33.0001C45.1666 33.4421 44.991 33.866 44.6784 34.1786C44.3659 34.4912 43.9419 34.6667 43.4999 34.6667H33.4999C33.0579 34.6667 32.634 34.4912 32.3214 34.1786C32.0088 33.866 31.8333 33.4421 31.8333 33.0001Z" stroke="white" stroke-width="1.66667" stroke-linejoin="round"/>
<path d="M38.5 26.3334C39.8807 26.3334 41 25.2141 41 23.8334C41 22.4527 39.8807 21.3334 38.5 21.3334C37.1193 21.3334 36 22.4527 36 23.8334C36 25.2141 37.1193 26.3334 38.5 26.3334Z" stroke="white" stroke-width="1.66667"/>
<path d="M60.5699 28.764C60.8819 28.764 61.1559 28.724 61.3919 28.644C61.6319 28.564 61.8299 28.452 61.9859 28.308C62.1459 28.16 62.2659 27.982 62.3459 27.774C62.4259 27.566 62.4659 27.334 62.4659 27.078C62.4659 26.826 62.4259 26.6 62.3459 26.4C62.2699 26.2 62.1539 26.03 61.9979 25.89C61.8419 25.75 61.6439 25.644 61.4039 25.572C61.1679 25.496 60.8899 25.458 60.5699 25.458H59.2859V28.764H60.5699ZM60.5699 24.36C61.1339 24.36 61.6219 24.426 62.0339 24.558C62.4499 24.69 62.7919 24.876 63.0599 25.116C63.3319 25.352 63.5339 25.638 63.6659 25.974C63.7979 26.306 63.8639 26.674 63.8639 27.078C63.8639 27.49 63.7939 27.868 63.6539 28.212C63.5139 28.552 63.3059 28.846 63.0299 29.094C62.7539 29.338 62.4099 29.53 61.9979 29.67C61.5899 29.806 61.1139 29.874 60.5699 29.874H59.2859V33H57.8819V24.36H60.5699ZM65.8386 28.014C66.0306 27.626 66.2626 27.322 66.5346 27.102C66.8066 26.878 67.1326 26.766 67.5126 26.766C67.6446 26.766 67.7686 26.782 67.8846 26.814C68.0006 26.842 68.1046 26.886 68.1966 26.946L68.1066 27.918C68.0906 27.986 68.0646 28.034 68.0286 28.062C67.9966 28.086 67.9526 28.098 67.8966 28.098C67.8366 28.098 67.7506 28.088 67.6386 28.068C67.5266 28.044 67.4086 28.032 67.2846 28.032C67.1046 28.032 66.9446 28.058 66.8046 28.11C66.6686 28.162 66.5446 28.238 66.4326 28.338C66.3246 28.438 66.2286 28.56 66.1446 28.704C66.0606 28.848 65.9826 29.012 65.9106 29.196V33H64.6206V26.88H65.3706C65.5066 26.88 65.6006 26.906 65.6526 26.958C65.7046 27.006 65.7406 27.092 65.7606 27.216L65.8386 28.014ZM71.2454 26.784C71.6974 26.784 72.1054 26.858 72.4694 27.006C72.8374 27.154 73.1494 27.364 73.4054 27.636C73.6654 27.908 73.8654 28.238 74.0054 28.626C74.1454 29.014 74.2154 29.45 74.2154 29.934C74.2154 30.418 74.1454 30.854 74.0054 31.242C73.8654 31.63 73.6654 31.962 73.4054 32.238C73.1494 32.51 72.8374 32.72 72.4694 32.868C72.1054 33.016 71.6974 33.09 71.2454 33.09C70.7894 33.09 70.3774 33.016 70.0094 32.868C69.6454 32.72 69.3334 32.51 69.0734 32.238C68.8134 31.962 68.6134 31.63 68.4734 31.242C68.3334 30.854 68.2634 30.418 68.2634 29.934C68.2634 29.45 68.3334 29.014 68.4734 28.626C68.6134 28.238 68.8134 27.908 69.0734 27.636C69.3334 27.364 69.6454 27.154 70.0094 27.006C70.3774 26.858 70.7894 26.784 71.2454 26.784ZM71.2454 32.082C71.7974 32.082 72.2074 31.898 72.4754 31.53C72.7474 31.158 72.8834 30.628 72.8834 29.94C72.8834 29.252 72.7474 28.722 72.4754 28.35C72.2074 27.974 71.7974 27.786 71.2454 27.786C70.6854 27.786 70.2694 27.974 69.9974 28.35C69.7254 28.722 69.5894 29.252 69.5894 29.94C69.5894 30.628 69.7254 31.158 69.9974 31.53C70.2694 31.898 70.6854 32.082 71.2454 32.082ZM75.4942 33V27.906L74.8942 27.822C74.7942 27.802 74.7122 27.766 74.6482 27.714C74.5882 27.662 74.5582 27.588 74.5582 27.492V26.964H75.4942V26.706C75.4942 26.33 75.5542 25.984 75.6742 25.668C75.7942 25.352 75.9762 25.078 76.2202 24.846C76.4642 24.614 76.7682 24.434 77.1322 24.306C77.5002 24.174 77.9302 24.108 78.4222 24.108C78.5822 24.108 78.7462 24.118 78.9142 24.138C79.0862 24.158 79.2322 24.188 79.3522 24.228L79.3102 24.9C79.3022 24.984 79.2522 25.032 79.1602 25.044C79.0682 25.052 78.9462 25.056 78.7942 25.056C78.4222 25.056 78.1062 25.092 77.8462 25.164C77.5862 25.232 77.3742 25.338 77.2102 25.482C77.0462 25.622 76.9262 25.798 76.8502 26.01C76.7782 26.218 76.7422 26.462 76.7422 26.742V26.964H80.4922V33H79.2022V27.894H76.7842V33H75.4942ZM83.2029 24.12V33H81.9129V24.12H83.2029ZM88.5691 29.25C88.5691 29.034 88.5371 28.834 88.4731 28.65C88.4131 28.462 88.3231 28.3 88.2031 28.164C88.0831 28.024 87.9331 27.916 87.7531 27.84C87.5771 27.76 87.3731 27.72 87.1411 27.72C86.6731 27.72 86.3051 27.854 86.0371 28.122C85.7691 28.39 85.5991 28.766 85.5271 29.25H88.5691ZM85.4911 30.042C85.5071 30.39 85.5611 30.692 85.6531 30.948C85.7451 31.2 85.8671 31.41 86.0191 31.578C86.1751 31.746 86.3591 31.872 86.5711 31.956C86.7871 32.036 87.0271 32.076 87.2911 32.076C87.5431 32.076 87.7611 32.048 87.9451 31.992C88.1291 31.932 88.2891 31.868 88.4251 31.8C88.5611 31.728 88.6771 31.664 88.7731 31.608C88.8691 31.548 88.9571 31.518 89.0371 31.518C89.1411 31.518 89.2211 31.558 89.2771 31.638L89.6431 32.112C89.4911 32.292 89.3191 32.444 89.1271 32.568C88.9351 32.692 88.7311 32.794 88.5151 32.874C88.2991 32.95 88.0771 33.004 87.8491 33.036C87.6211 33.072 87.3991 33.09 87.1831 33.09C86.7591 33.09 86.3651 33.02 86.0011 32.88C85.6411 32.736 85.3271 32.526 85.0591 32.25C84.7951 31.974 84.5871 31.632 84.4351 31.224C84.2871 30.816 84.2131 30.346 84.2131 29.814C84.2131 29.39 84.2791 28.994 84.4111 28.626C84.5471 28.258 84.7391 27.938 84.9871 27.666C85.2391 27.394 85.5431 27.18 85.8991 27.024C86.2591 26.864 86.6651 26.784 87.1171 26.784C87.4931 26.784 87.8411 26.846 88.1611 26.97C88.4811 27.09 88.7571 27.268 88.9891 27.504C89.2211 27.74 89.4011 28.03 89.5291 28.374C89.6611 28.714 89.7271 29.102 89.7271 29.538C89.7271 29.738 89.7051 29.872 89.6611 29.94C89.6171 30.008 89.5371 30.042 89.4211 30.042H85.4911Z" fill="white"/>
</svg>
