<svg width="16" height="16" viewBox="0 0 16 16" fill="none" xmlns="http://www.w3.org/2000/svg">
<path d="M1.33325 13.0001C1.33325 12.116 1.68444 11.2682 2.30956 10.6431C2.93468 10.0179 3.78253 9.66675 4.66659 9.66675H11.3333C12.2173 9.66675 13.0652 10.0179 13.6903 10.6431C14.3154 11.2682 14.6666 12.116 14.6666 13.0001C14.6666 13.4421 14.491 13.866 14.1784 14.1786C13.8659 14.4912 13.4419 14.6667 12.9999 14.6667H2.99992C2.55789 14.6667 2.13397 14.4912 1.82141 14.1786C1.50885 13.866 1.33325 13.4421 1.33325 13.0001Z" stroke="#929292" stroke-width="1.66667" stroke-linejoin="round"/>
<path d="M8 6.33337C9.38071 6.33337 10.5 5.21409 10.5 3.83337C10.5 2.45266 9.38071 1.33337 8 1.33337C6.61929 1.33337 5.5 2.45266 5.5 3.83337C5.5 5.21409 6.61929 6.33337 8 6.33337Z" stroke="#929292" stroke-width="1.66667"/>
</svg>
