<svg width="120" height="56" viewBox="0 0 120 56" fill="none" xmlns="http://www.w3.org/2000/svg">
<rect x="0.975098" width="119" height="56" rx="28" fill="#5E5BE2"/>
<path d="M39.4766 22.7009C40.5466 23.0469 41.3026 24.0019 41.3936 25.1229M26.3484 27.5992C25.2754 24.2492 26.5294 20.4202 30.0464 19.2872C31.8964 18.6902 33.9384 19.0422 35.4764 20.1992C36.9314 19.0742 39.0484 18.6942 40.8964 19.2872C44.4134 20.4202 45.6754 24.2492 44.6034 27.5992C42.9334 32.9092 35.4764 36.9992 35.4764 36.9992C35.4764 36.9992 28.0744 32.9712 26.3484 27.5992Z" stroke="white" stroke-width="1.5" stroke-linecap="round" stroke-linejoin="round"/>
<path d="M68.2538 24.36L65.5658 33H64.2998L62.2718 26.796C62.2478 26.728 62.2238 26.654 62.1998 26.574C62.1798 26.494 62.1598 26.408 62.1398 26.316C62.1198 26.408 62.0978 26.494 62.0738 26.574C62.0538 26.654 62.0318 26.728 62.0078 26.796L59.9618 33H58.6958L56.0078 24.36H57.1838C57.3038 24.36 57.4038 24.39 57.4838 24.45C57.5678 24.506 57.6238 24.584 57.6518 24.684L59.2718 30.222C59.3038 30.342 59.3338 30.472 59.3618 30.612C59.3898 30.752 59.4178 30.898 59.4458 31.05C59.4738 30.898 59.5038 30.752 59.5358 30.612C59.5718 30.468 59.6098 30.338 59.6498 30.222L61.5038 24.684C61.5318 24.604 61.5878 24.53 61.6718 24.462C61.7558 24.394 61.8558 24.36 61.9718 24.36H62.3798C62.5038 24.36 62.6038 24.392 62.6798 24.456C62.7558 24.516 62.8138 24.592 62.8538 24.684L64.7018 30.222C64.7418 30.338 64.7778 30.464 64.8098 30.6C64.8458 30.732 64.8778 30.872 64.9058 31.02C64.9338 30.872 64.9598 30.732 64.9838 30.6C65.0118 30.464 65.0418 30.338 65.0738 30.222L66.6878 24.684C66.7118 24.596 66.7658 24.52 66.8498 24.456C66.9378 24.392 67.0398 24.36 67.1558 24.36H68.2538ZM70.2285 26.88V33H68.9385V26.88H70.2285ZM70.4445 25.032C70.4445 25.148 70.4205 25.258 70.3725 25.362C70.3285 25.466 70.2665 25.558 70.1865 25.638C70.1065 25.714 70.0125 25.776 69.9045 25.824C69.8005 25.868 69.6885 25.89 69.5685 25.89C69.4525 25.89 69.3425 25.868 69.2385 25.824C69.1385 25.776 69.0505 25.714 68.9745 25.638C68.8985 25.558 68.8365 25.466 68.7885 25.362C68.7445 25.258 68.7225 25.148 68.7225 25.032C68.7225 24.912 68.7445 24.8 68.7885 24.696C68.8365 24.592 68.8985 24.502 68.9745 24.426C69.0505 24.346 69.1385 24.284 69.2385 24.24C69.3425 24.192 69.4525 24.168 69.5685 24.168C69.6885 24.168 69.8005 24.192 69.9045 24.24C70.0125 24.284 70.1065 24.346 70.1865 24.426C70.2665 24.502 70.3285 24.592 70.3725 24.696C70.4205 24.8 70.4445 24.912 70.4445 25.032ZM75.2634 27.99C75.2314 28.046 75.1954 28.086 75.1554 28.11C75.1154 28.134 75.0654 28.146 75.0054 28.146C74.9374 28.146 74.8634 28.126 74.7834 28.086C74.7034 28.042 74.6094 27.994 74.5014 27.942C74.3934 27.89 74.2654 27.844 74.1174 27.804C73.9734 27.76 73.8034 27.738 73.6074 27.738C73.4474 27.738 73.3014 27.758 73.1694 27.798C73.0414 27.834 72.9314 27.888 72.8394 27.96C72.7514 28.028 72.6834 28.11 72.6354 28.206C72.5874 28.298 72.5634 28.398 72.5634 28.506C72.5634 28.65 72.6074 28.77 72.6954 28.866C72.7834 28.962 72.8994 29.046 73.0434 29.118C73.1874 29.186 73.3514 29.248 73.5354 29.304C73.7194 29.36 73.9074 29.42 74.0994 29.484C74.2914 29.548 74.4794 29.622 74.6634 29.706C74.8474 29.79 75.0114 29.894 75.1554 30.018C75.2994 30.138 75.4154 30.286 75.5034 30.462C75.5914 30.634 75.6354 30.844 75.6354 31.092C75.6354 31.38 75.5834 31.646 75.4794 31.89C75.3754 32.134 75.2234 32.346 75.0234 32.526C74.8234 32.706 74.5734 32.846 74.2734 32.946C73.9774 33.046 73.6374 33.096 73.2534 33.096C73.0414 33.096 72.8354 33.076 72.6354 33.036C72.4394 33 72.2514 32.95 72.0714 32.886C71.8954 32.818 71.7294 32.738 71.5734 32.646C71.4214 32.554 71.2854 32.454 71.1654 32.346L71.4654 31.854C71.5014 31.794 71.5454 31.748 71.5974 31.716C71.6534 31.68 71.7214 31.662 71.8014 31.662C71.8854 31.662 71.9674 31.69 72.0474 31.746C72.1314 31.798 72.2274 31.856 72.3354 31.92C72.4474 31.984 72.5814 32.044 72.7374 32.1C72.8934 32.152 73.0874 32.178 73.3194 32.178C73.5114 32.178 73.6774 32.156 73.8174 32.112C73.9574 32.064 74.0734 32 74.1654 31.92C74.2574 31.84 74.3254 31.75 74.3694 31.65C74.4134 31.546 74.4354 31.436 74.4354 31.32C74.4354 31.164 74.3914 31.036 74.3034 30.936C74.2154 30.836 74.0974 30.75 73.9494 30.678C73.8054 30.606 73.6394 30.542 73.4514 30.486C73.2674 30.43 73.0794 30.37 72.8874 30.306C72.6954 30.242 72.5054 30.168 72.3174 30.084C72.1334 30 71.9674 29.894 71.8194 29.766C71.6754 29.634 71.5594 29.476 71.4714 29.292C71.3834 29.104 71.3394 28.876 71.3394 28.608C71.3394 28.364 71.3874 28.132 71.4834 27.912C71.5834 27.692 71.7274 27.498 71.9154 27.33C72.1074 27.162 72.3414 27.03 72.6174 26.934C72.8974 26.834 73.2194 26.784 73.5834 26.784C73.9954 26.784 74.3694 26.85 74.7054 26.982C75.0414 27.114 75.3234 27.294 75.5514 27.522L75.2634 27.99ZM77.8977 27.606C78.1497 27.358 78.4257 27.16 78.7257 27.012C79.0257 26.86 79.3757 26.784 79.7757 26.784C80.1117 26.784 80.4057 26.84 80.6577 26.952C80.9137 27.064 81.1277 27.222 81.2997 27.426C81.4757 27.63 81.6077 27.876 81.6957 28.164C81.7837 28.448 81.8277 28.762 81.8277 29.106V33H80.5437V29.106C80.5437 28.694 80.4477 28.374 80.2557 28.146C80.0677 27.918 79.7797 27.804 79.3917 27.804C79.1037 27.804 78.8357 27.87 78.5877 28.002C78.3437 28.134 78.1137 28.314 77.8977 28.542V33H76.6077V24.12H77.8977V27.606ZM84.4082 24.12V33H83.1182V24.12H84.4082ZM87.1045 26.88V33H85.8145V26.88H87.1045ZM87.3205 25.032C87.3205 25.148 87.2965 25.258 87.2485 25.362C87.2045 25.466 87.1425 25.558 87.0625 25.638C86.9825 25.714 86.8885 25.776 86.7805 25.824C86.6765 25.868 86.5645 25.89 86.4445 25.89C86.3285 25.89 86.2185 25.868 86.1145 25.824C86.0145 25.776 85.9265 25.714 85.8505 25.638C85.7745 25.558 85.7125 25.466 85.6645 25.362C85.6205 25.258 85.5985 25.148 85.5985 25.032C85.5985 24.912 85.6205 24.8 85.6645 24.696C85.7125 24.592 85.7745 24.502 85.8505 24.426C85.9265 24.346 86.0145 24.284 86.1145 24.24C86.2185 24.192 86.3285 24.168 86.4445 24.168C86.5645 24.168 86.6765 24.192 86.7805 24.24C86.8885 24.284 86.9825 24.346 87.0625 24.426C87.1425 24.502 87.2045 24.592 87.2485 24.696C87.2965 24.8 87.3205 24.912 87.3205 25.032ZM92.1393 27.99C92.1073 28.046 92.0713 28.086 92.0313 28.11C91.9913 28.134 91.9413 28.146 91.8813 28.146C91.8133 28.146 91.7393 28.126 91.6593 28.086C91.5793 28.042 91.4853 27.994 91.3773 27.942C91.2693 27.89 91.1413 27.844 90.9933 27.804C90.8493 27.76 90.6793 27.738 90.4833 27.738C90.3233 27.738 90.1773 27.758 90.0453 27.798C89.9173 27.834 89.8073 27.888 89.7153 27.96C89.6273 28.028 89.5593 28.11 89.5113 28.206C89.4633 28.298 89.4393 28.398 89.4393 28.506C89.4393 28.65 89.4833 28.77 89.5713 28.866C89.6593 28.962 89.7753 29.046 89.9193 29.118C90.0633 29.186 90.2273 29.248 90.4113 29.304C90.5953 29.36 90.7833 29.42 90.9753 29.484C91.1673 29.548 91.3553 29.622 91.5393 29.706C91.7233 29.79 91.8873 29.894 92.0313 30.018C92.1753 30.138 92.2913 30.286 92.3793 30.462C92.4673 30.634 92.5113 30.844 92.5113 31.092C92.5113 31.38 92.4593 31.646 92.3553 31.89C92.2513 32.134 92.0993 32.346 91.8993 32.526C91.6993 32.706 91.4493 32.846 91.1493 32.946C90.8533 33.046 90.5133 33.096 90.1293 33.096C89.9173 33.096 89.7113 33.076 89.5113 33.036C89.3153 33 89.1273 32.95 88.9473 32.886C88.7713 32.818 88.6053 32.738 88.4493 32.646C88.2973 32.554 88.1613 32.454 88.0413 32.346L88.3413 31.854C88.3773 31.794 88.4213 31.748 88.4733 31.716C88.5293 31.68 88.5973 31.662 88.6773 31.662C88.7613 31.662 88.8433 31.69 88.9233 31.746C89.0073 31.798 89.1033 31.856 89.2113 31.92C89.3233 31.984 89.4573 32.044 89.6133 32.1C89.7693 32.152 89.9633 32.178 90.1953 32.178C90.3873 32.178 90.5533 32.156 90.6933 32.112C90.8333 32.064 90.9493 32 91.0413 31.92C91.1333 31.84 91.2013 31.75 91.2453 31.65C91.2893 31.546 91.3113 31.436 91.3113 31.32C91.3113 31.164 91.2673 31.036 91.1793 30.936C91.0913 30.836 90.9733 30.75 90.8253 30.678C90.6813 30.606 90.5153 30.542 90.3273 30.486C90.1433 30.43 89.9553 30.37 89.7633 30.306C89.5713 30.242 89.3813 30.168 89.1933 30.084C89.0093 30 88.8433 29.894 88.6953 29.766C88.5513 29.634 88.4353 29.476 88.3473 29.292C88.2593 29.104 88.2153 28.876 88.2153 28.608C88.2153 28.364 88.2633 28.132 88.3593 27.912C88.4593 27.692 88.6033 27.498 88.7913 27.33C88.9833 27.162 89.2173 27.03 89.4933 26.934C89.7733 26.834 90.0953 26.784 90.4593 26.784C90.8713 26.784 91.2453 26.85 91.5813 26.982C91.9173 27.114 92.1993 27.294 92.4273 27.522L92.1393 27.99ZM95.4456 33.096C94.9376 33.096 94.5456 32.954 94.2696 32.67C93.9976 32.382 93.8616 31.978 93.8616 31.458V27.894H93.1896C93.1176 27.894 93.0556 27.872 93.0036 27.828C92.9516 27.78 92.9256 27.71 92.9256 27.618V27.096L93.9156 26.952L94.1976 25.182C94.2176 25.114 94.2516 25.06 94.2996 25.02C94.3476 24.976 94.4116 24.954 94.4916 24.954H95.1516V26.964H96.8496V27.894H95.1516V31.368C95.1516 31.588 95.2056 31.756 95.3136 31.872C95.4216 31.988 95.5656 32.046 95.7456 32.046C95.8456 32.046 95.9316 32.034 96.0036 32.01C96.0756 31.982 96.1376 31.954 96.1896 31.926C96.2416 31.894 96.2856 31.866 96.3216 31.842C96.3616 31.814 96.3996 31.8 96.4356 31.8C96.5076 31.8 96.5656 31.84 96.6096 31.92L96.9936 32.55C96.7936 32.726 96.5576 32.862 96.2856 32.958C96.0136 33.05 95.7336 33.096 95.4456 33.096Z" fill="white"/>
</svg>
